# xmcd CD database file
#
# Track frame offsets:
#	150
#	18261
#	35522
#	54243
#	68380
#	84560
#	102370
#	119073
#	135830
#	150772
#	165239
#	180664
#	200733
#
# Disc length: 2883 seconds
#
# Revision: 0
# Processed by: cddbd v1.5.2PL0 Copyright (c) Steve Scherf et al.
# Submitted via: CDex 1.70beta2
#
DISCID=960b410d
DTITLE=Open Range - Swingtime in the Rockies
DYEAR=2004
DGENRE=Country
TTITLE0=Wild Western Plains
TTITLE1=Bllue and Lonesome
TTITLE2=Swingtime in the Rockies
TTITLE3=Two in the Saddle
TTITLE4=Goodbye Memories
TTITLE5=Cool Blue Mountains
TTITLE6=Arizona Saturday Night
TTITLE7=Dream of My Cowboy
TTITLE8=Roundup Time on the Rio Grande
TTITLE9=Cowboy Melody
TTITLE10=Swingin' the Blues
TTITLE11=Cold Bitter Wind
TTITLE12=The Western Land I Love
EXTD=YEAR: 2004
EXTT0=
EXTT1=
EXTT2=
EXTT3=
EXTT4=
EXTT5=
EXTT6=
EXTT7=
EXTT8=
EXTT9=
EXTT10=
EXTT11=
EXTT12=
PLAYORDER=
